<mxfile host="Electron" modified="2023-08-07T14:19:20.469Z" agent="Mozilla/5.0 (Windows NT 10.0; Win64; x64) AppleWebKit/537.36 (KHTML, like Gecko) draw.io/21.6.5 Chrome/114.0.5735.243 Electron/25.3.1 Safari/537.36" etag="DWSln5x-TZ1yYufk1341" version="21.6.5" type="device">
  <diagram name="Page-1" id="sopD6AmWFSPcYpW161eN">
    <mxGraphModel dx="880" dy="545" grid="1" gridSize="10" guides="1" tooltips="1" connect="1" arrows="1" fold="1" page="1" pageScale="1" pageWidth="1169" pageHeight="827" math="0" shadow="0">
      <root>
        <mxCell id="0" />
        <mxCell id="1" parent="0" />
        <mxCell id="GylmarJIleWey5jeVZgA-17" value="" style="fontStyle=1;align=center;verticalAlign=top;childLayout=stackLayout;horizontal=1;horizontalStack=0;resizeParent=1;resizeParentMax=0;resizeLast=0;marginBottom=0;" vertex="1" parent="1">
          <mxGeometry x="265" y="41" width="140" height="40" as="geometry" />
        </mxCell>
        <mxCell id="GylmarJIleWey5jeVZgA-18" value="«component»&lt;br&gt;&lt;b&gt;Customer&lt;/b&gt;" style="html=1;align=center;spacingLeft=4;verticalAlign=middle;strokeColor=none;fillColor=none;whiteSpace=wrap;" vertex="1" parent="GylmarJIleWey5jeVZgA-17">
          <mxGeometry width="140" height="40" as="geometry" />
        </mxCell>
        <mxCell id="GylmarJIleWey5jeVZgA-19" value="" style="shape=module;jettyWidth=10;jettyHeight=4;" vertex="1" parent="GylmarJIleWey5jeVZgA-18">
          <mxGeometry x="1" width="16" height="20" relative="1" as="geometry">
            <mxPoint x="-25" y="9" as="offset" />
          </mxGeometry>
        </mxCell>
        <mxCell id="GylmarJIleWey5jeVZgA-27" style="rounded=0;orthogonalLoop=1;jettySize=auto;html=1;exitX=0.5;exitY=0;exitDx=0;exitDy=0;entryX=0.25;entryY=1;entryDx=0;entryDy=0;dashed=1;endArrow=blockThin;endFill=0;endSize=12;" edge="1" parent="1" source="GylmarJIleWey5jeVZgA-23" target="GylmarJIleWey5jeVZgA-18">
          <mxGeometry relative="1" as="geometry" />
        </mxCell>
        <mxCell id="GylmarJIleWey5jeVZgA-23" value="CustomerImpl" style="whiteSpace=wrap;html=1;" vertex="1" parent="1">
          <mxGeometry x="90" y="145" width="100" height="30" as="geometry" />
        </mxCell>
        <mxCell id="GylmarJIleWey5jeVZgA-28" style="edgeStyle=orthogonalEdgeStyle;rounded=0;orthogonalLoop=1;jettySize=auto;html=1;exitX=0.5;exitY=0;exitDx=0;exitDy=0;entryX=0.5;entryY=1;entryDx=0;entryDy=0;endArrow=blockThin;dashed=1;endFill=0;endSize=12;" edge="1" parent="1" source="GylmarJIleWey5jeVZgA-24" target="GylmarJIleWey5jeVZgA-18">
          <mxGeometry relative="1" as="geometry" />
        </mxCell>
        <mxCell id="GylmarJIleWey5jeVZgA-24" value="CustomerColl" style="whiteSpace=wrap;html=1;" vertex="1" parent="1">
          <mxGeometry x="285" y="145" width="100" height="30" as="geometry" />
        </mxCell>
        <mxCell id="GylmarJIleWey5jeVZgA-29" style="rounded=0;orthogonalLoop=1;jettySize=auto;html=1;exitX=0.5;exitY=0;exitDx=0;exitDy=0;entryX=0.75;entryY=1;entryDx=0;entryDy=0;endArrow=blockThin;dashed=1;endFill=0;endSize=12;" edge="1" parent="1" source="GylmarJIleWey5jeVZgA-25" target="GylmarJIleWey5jeVZgA-18">
          <mxGeometry relative="1" as="geometry" />
        </mxCell>
        <mxCell id="GylmarJIleWey5jeVZgA-25" value="CustomerDef" style="whiteSpace=wrap;html=1;" vertex="1" parent="1">
          <mxGeometry x="480" y="145" width="100" height="30" as="geometry" />
        </mxCell>
        <mxCell id="GylmarJIleWey5jeVZgA-26" value="&lt;b&gt;Figure 11.44 A representation of the realization of a complex Component&lt;/b&gt;" style="text;html=1;align=left;verticalAlign=middle;resizable=0;points=[];autosize=1;strokeColor=none;fillColor=none;" vertex="1" parent="1">
          <mxGeometry x="80" y="200" width="440" height="30" as="geometry" />
        </mxCell>
      </root>
    </mxGraphModel>
  </diagram>
</mxfile>
